<svg xmlns="http://www.w3.org/2000/svg" viewBox="0 0 512 512" role="img" aria-label="DMIT Demo">
  <defs>
    <linearGradient id="bg" x1="0" y1="0" x2="1" y2="1">
      <stop offset="0%" stop-color="#e7dcc8"/>
      <stop offset="100%" stop-color="#b48c46"/>
    </linearGradient>
  </defs>
  <rect width="512" height="512" rx="96" fill="url(#bg)"/>
  <path d="M256 80c-82 0-148 66-148 148 0 61 37 114 90 137" fill="none" stroke="#1f2421" stroke-width="20" stroke-linecap="round"/>
  <path d="M256 130c-54 0-98 44-98 98 0 45 30 82 71 94" fill="none" stroke="#1f2421" stroke-width="18" stroke-linecap="round"/>
  <path d="M256 174c-30 0-54 24-54 54 0 27 20 49 46 53" fill="none" stroke="#1f2421" stroke-width="16" stroke-linecap="round"/>
  <path d="M344 268c0 48-39 87-87 87" fill="none" stroke="#1f2421" stroke-width="18" stroke-linecap="round"/>
  <circle cx="256" cy="256" r="12" fill="#1f2421"/>
</svg>
